<svg xmlns="http://www.w3.org/2000/svg" viewBox="0 0 64 64"><path d="M9 54V6c0-2.757 2.243-5 5-5h38c1.654 0 3 1.346 3 3v50H9Z" fill="#45220d" stroke-width="0" class="fill-af92ff"></path><circle cx="35" cy="11" r="5" fill="#ca8e56" stroke-width="0" class="fill-ffcd7d"></circle><path d="M9 54V6c0-2.757 2.243-5 5-5h1v53H9Z" fill="#f7d196" stroke-width="0" class="fill-ffe094"></path><path d="M14 59a5.004 5.004 0 0 1-3.755-1.702 4.956 4.956 0 0 1-1.202-3.96C9.359 50.865 11.581 49 14.209 49H55v10H14Z" fill="#763b16" stroke-width="0" class="fill-907ff7"></path><path d="M35 44c-7.72 0-14-6.28-14-14s6.28-14 14-14 14 6.28 14 14-6.28 14-14 14Z" fill="#f7d196" stroke-width="0" class="fill-ffe094"></path><path d="M32.143 32.857 25 30l7.143-2.857L35 20l2.857 7.143L45 30l-7.143 2.857L35 40l-2.857-7.143z" fill="#ca8e56" stroke-width="0" class="fill-ffcd7d"></path><path d="M22 54h8v9l-4-3-4 3 .002.001L22 54z" fill="#f7d196" stroke-width="0" class="fill-ffe094"></path><path d="M52 0H14c-3.309 0-6 2.691-6 6v48c0 3.309 2.691 6 6 6h5a1 1 0 1 0 0-2h-5a4.007 4.007 0 0 1-2.837-6.83A4.013 4.013 0 0 1 14 50h40v3H15a1 1 0 1 0 0 2h6v8a1 1 0 0 0 1.6.8l3.4-2.55 3.4 2.55a.995.995 0 0 0 1.047.095A1 1 0 0 0 31 63v-8h23v3H33a1 1 0 1 0 0 2h22a1 1 0 0 0 1-1V4c0-2.206-1.794-4-4-4ZM10 49.531V6c0-2.206 1.794-4 4-4v46a5.989 5.989 0 0 0-4 1.531ZM16 48V2h36c1.103 0 2 .897 2 2v44H16Zm13 13-2.4-1.8a.995.995 0 0 0-1.2 0L23 61v-6h6v6Z" fill="#000000" stroke-width="0" class="fill-373347"></path><path d="M38.916 15.536A5.984 5.984 0 0 0 41 11c0-3.309-2.691-6-6-6s-6 2.691-6 6c0 1.812.81 3.435 2.084 4.536C24.71 17.265 20 23.085 20 30c0 8.271 6.729 15 15 15s15-6.729 15-15c0-6.915-4.71-12.735-11.084-14.464ZM35 7c2.206 0 4 1.794 4 4 0 1.859-1.28 3.41-3 3.858V12a1 1 0 1 0-2 0v2.858c-1.72-.447-3-2-3-3.858 0-2.206 1.794-4 4-4Zm0 36c-7.168 0-13-5.832-13-13s5.832-13 13-13 13 5.832 13 13-5.832 13-13 13Z" fill="#000000" stroke-width="0" class="fill-373347"></path><path d="M35.929 19.629a1 1 0 0 0-1.858 0l-2.698 6.744-6.744 2.698a1 1 0 0 0 0 1.858l6.744 2.698 2.698 6.744a1 1 0 0 0 1.858 0l2.698-6.744 6.744-2.698a1 1 0 0 0 0-1.858l-6.744-2.698-2.698-6.744Zm1.557 12.3a.997.997 0 0 0-.557.557L35 37.308l-1.929-4.822a.997.997 0 0 0-.557-.557L27.692 30l4.822-1.929a.997.997 0 0 0 .557-.557L35 22.692l1.929 4.822a.997.997 0 0 0 .557.557L42.308 30l-4.822 1.929Z" fill="#000000" stroke-width="0" class="fill-373347"></path><circle cx="35" cy="30" r="1" fill="#f8e5ce" stroke-width="0" class="fill-ffb666"></circle></svg>